<?xml version="1.0" encoding="utf-8"?>
<!-- Generator: Adobe Illustrator 16.0.4, SVG Export Plug-In . SVG Version: 6.00 Build 0)  -->
<!DOCTYPE svg PUBLIC "-//W3C//DTD SVG 1.1//EN" "http://www.w3.org/Graphics/SVG/1.1/DTD/svg11.dtd">
<svg version="1.1" id="Layer_1" xmlns="http://www.w3.org/2000/svg" xmlns:xlink="http://www.w3.org/1999/xlink" x="0px" y="0px"
	 width="406.944px" height="313.026px" viewBox="0 0 406.944 313.026" enable-background="new 0 0 406.944 313.026"
	 xml:space="preserve">
<g opacity="0.8">
	<path fill="#FFFFFF" d="M29.653,305.968l6.396-36.729h0.175l7.329,36.729h14.478l14.306-58.778h-16.5l-5.412,36.004l-6.807-36.124
		H29.163l-6.876,36.124l-6.062-36.124H0l14.039,58.898H29.653L29.653,305.968z M87.888,243.933c4.962,0,8.985,3.146,8.985,7.025
		c0,3.879-4.023,7.024-8.985,7.024c-4.961,0-8.984-3.146-8.984-7.024C78.904,247.078,82.927,243.933,87.888,243.933L87.888,243.933z
		 M95.324,305.968v-42.666H79.825v42.666H95.324L95.324,305.968z"/>
	<path fill="#FFFFFF" d="M109.952,306.067h15.813v-18.941h31.48v-12.597h-31.48v-16.117h35.053v-10.851h-50.866V306.067
		L109.952,306.067z M178.665,243.933c4.962,0,8.985,3.146,8.985,7.025c0,3.879-4.022,7.024-8.985,7.024
		c-4.961,0-8.985-3.146-8.985-7.024C169.68,247.078,173.704,243.933,178.665,243.933L178.665,243.933z M186.101,305.968v-42.666
		h-15.499v42.666H186.101L186.101,305.968z"/>
</g>
<g opacity="0.8">
	<path fill="#FFFFFF" d="M297.279,276.882c0,0.238-0.047,0.543-0.14,0.914s-0.212,0.768-0.357,1.191s-0.317,0.854-0.517,1.291
		c-0.198,0.437-0.417,0.827-0.655,1.172c-0.45,0.688-1.039,1.482-1.768,2.383s-1.529,1.834-2.402,2.8
		c-0.874,0.967-1.808,1.934-2.801,2.899c-0.993,0.968-1.966,1.848-2.919,2.642c-0.769,0.636-1.655,1.338-2.661,2.105
		c-1.007,0.769-2.065,1.483-3.178,2.145c-1.112,0.662-2.251,1.212-3.416,1.648s-2.264,0.655-3.297,0.655
		c-0.927,0-1.768-0.132-2.521-0.397c-0.755-0.264-1.444-0.761-2.065-1.489c-0.623-0.728-1.172-1.728-1.648-2.999
		c-0.477-1.271-0.888-2.912-1.231-4.925c-0.159-0.847-0.298-1.754-0.417-2.721s-0.238-1.927-0.357-2.88s-0.232-1.873-0.338-2.761
		c-0.106-0.887-0.232-1.668-0.377-2.343c-0.146-0.676-0.305-1.212-0.477-1.609c-0.173-0.396-0.365-0.596-0.576-0.596
		c-0.345,0-0.828,0.292-1.45,0.874c-0.622,0.583-1.351,1.424-2.185,2.522s-1.747,2.417-2.74,3.952
		c-0.993,1.536-2.032,3.257-3.118,5.163c-2.145,3.813-3.959,6.713-5.441,8.699c-1.483,1.985-2.834,2.979-4.052,2.979
		c-1.827,0-3.059-0.86-3.693-2.582c-0.583-1.747-0.94-4.673-1.072-8.777c-0.08-3.998-0.365-7.076-0.854-9.235
		c-0.49-2.157-1.119-3.237-1.887-3.237c-0.477,0-1.172,0.431-2.085,1.291c-0.914,0.861-1.946,2.046-3.099,3.556
		c-1.151,1.509-2.402,3.29-3.753,5.342c-1.351,2.053-2.701,4.283-4.052,6.692c-0.371,0.636-0.794,1.364-1.271,2.185
		c-0.477,0.821-0.96,1.648-1.45,2.482s-0.967,1.623-1.43,2.363c-0.464,0.742-0.868,1.351-1.212,1.827
		c-0.768,1.112-1.694,1.669-2.78,1.669c-2.012,0-3.336-1.033-3.972-3.099c-0.159-0.529-0.285-0.959-0.377-1.291
		c-0.093-0.331-0.166-0.661-0.218-0.993c-0.053-0.33-0.086-0.694-0.099-1.092c-0.014-0.397-0.02-0.914-0.02-1.549
		c0-1.059,0.033-2.032,0.099-2.92c0.066-0.887,0.152-1.78,0.258-2.681c0.105-0.9,0.238-1.867,0.397-2.899
		c0.159-1.033,0.318-2.237,0.477-3.614c0.132-1.139,0.251-2.356,0.357-3.654c0.105-1.298,0.205-2.562,0.298-3.794
		c0.092-1.23,0.185-2.363,0.278-3.396c0.093-1.033,0.219-1.854,0.377-2.463c0.08-0.317,0.264-0.688,0.556-1.112
		c0.291-0.423,0.628-0.827,1.013-1.211c0.383-0.384,0.788-0.715,1.211-0.993c0.423-0.278,0.795-0.417,1.112-0.417
		c0.556,0,1.013,0.126,1.37,0.377c0.357,0.252,0.648,0.59,0.874,1.014c0.225,0.424,0.384,0.92,0.477,1.489s0.139,1.158,0.139,1.768
		c0,0.635-0.06,1.43-0.179,2.383s-0.271,1.986-0.456,3.099c-0.186,1.111-0.392,2.264-0.616,3.455
		c-0.226,1.191-0.443,2.33-0.655,3.416s-0.404,2.085-0.576,2.999c-0.172,0.913-0.298,1.662-0.377,2.244
		c-0.238,1.456-0.397,2.615-0.477,3.476c-0.08,0.86-0.119,1.556-0.119,2.085c0.344-0.344,0.78-0.86,1.311-1.549
		c0.529-0.688,1.112-1.496,1.748-2.423c0.635-0.927,1.304-1.946,2.006-3.059c0.701-1.112,1.409-2.251,2.125-3.416
		c0.502-0.82,1.065-1.748,1.688-2.78c0.622-1.033,1.271-2.071,1.946-3.118c0.676-1.046,1.344-2.032,2.006-2.959
		s1.271-1.708,1.827-2.344c1.112-1.271,2.264-2.237,3.456-2.899c1.191-0.661,2.436-0.993,3.733-0.993
		c1.271,0,2.376,0.497,3.316,1.49c0.939,0.992,1.568,2.283,1.887,3.872c0.159,0.742,0.284,1.596,0.377,2.562
		s0.179,1.979,0.259,3.038c0.079,1.06,0.151,2.119,0.218,3.178c0.066,1.06,0.14,2.065,0.219,3.019
		c0.079,0.927,0.191,1.694,0.338,2.304c0.145,0.609,0.298,1.092,0.456,1.449c0.159,0.358,0.305,0.61,0.438,0.755
		c0.132,0.146,0.238,0.219,0.317,0.219c0.503,0,1.351-1.046,2.542-3.138c0.609-1.059,1.284-2.237,2.026-3.535
		c0.74-1.297,1.562-2.727,2.462-4.29c0.9-1.535,1.867-3.019,2.899-4.448c1.033-1.43,2.046-2.694,3.039-3.793s1.926-1.973,2.8-2.622
		c0.874-0.648,1.615-0.973,2.225-0.973c0.397,0,0.808,0.04,1.231,0.119c0.423,0.079,0.834,0.198,1.231,0.357
		c0.396,0.159,0.747,0.352,1.052,0.576s0.537,0.47,0.695,0.734c0.397,0.636,0.682,1.357,0.854,2.165
		c0.172,0.808,0.298,1.734,0.377,2.78s0.152,2.211,0.219,3.495c0.065,1.285,0.179,2.708,0.338,4.27
		c0.37,3.311,0.946,5.779,1.728,7.408c0.78,1.628,1.899,2.442,3.356,2.442c0.556,0,1.257-0.185,2.104-0.556s1.748-0.854,2.701-1.45
		s1.92-1.271,2.899-2.025s1.893-1.503,2.74-2.244s1.662-1.489,2.443-2.244c0.78-0.755,1.568-1.522,2.363-2.304
		c0.794-0.781,1.608-1.595,2.442-2.442s1.728-1.748,2.682-2.701c0.317-0.318,0.608-0.477,0.873-0.477
		C297.08,275.85,297.279,276.193,297.279,276.882z"/>
	<path fill="#FFFFFF" d="M350.662,277.518c0,0.317-0.04,0.695-0.119,1.132c-0.08,0.438-0.192,0.881-0.338,1.331
		s-0.305,0.88-0.477,1.291c-0.173,0.41-0.352,0.734-0.536,0.973c-0.159,0.212-0.391,0.496-0.695,0.854
		c-0.305,0.358-0.643,0.749-1.013,1.172c-0.371,0.424-0.774,0.868-1.212,1.331c-0.437,0.464-0.894,0.907-1.37,1.33
		c-1.642,1.51-3.251,2.973-4.825,4.39c-1.576,1.417-3.198,2.668-4.866,3.753c-1.668,1.086-3.409,1.953-5.223,2.602
		c-1.814,0.649-3.78,0.96-5.898,0.934c-0.98,0-1.966-0.179-2.959-0.536s-1.927-0.867-2.801-1.529
		c-0.873-0.661-1.628-1.456-2.264-2.383s-1.086-1.946-1.351-3.059c-0.769,0.794-1.575,1.622-2.423,2.482s-1.728,1.728-2.642,2.602
		c-0.913,0.874-1.86,1.722-2.84,2.542c-0.979,0.821-1.985,1.576-3.019,2.264c-0.583,0.372-1.277,0.769-2.085,1.192
		c-0.809,0.424-1.655,0.813-2.542,1.171c-0.888,0.358-1.774,0.649-2.661,0.874c-0.888,0.226-1.688,0.338-2.403,0.338
		c-1.086,0-2.02-0.338-2.8-1.013c-0.782-0.676-1.431-1.503-1.946-2.482c-0.517-0.979-0.9-2.025-1.152-3.138
		s-0.377-2.105-0.377-2.979c0-1.747,0.251-3.535,0.755-5.362c0.502-1.827,1.157-3.607,1.966-5.342
		c0.808-1.734,1.708-3.383,2.701-4.945c0.992-1.562,1.966-2.952,2.919-4.17c1.006-1.271,2.197-2.535,3.575-3.794
		c1.376-1.257,2.806-2.383,4.289-3.376c1.482-0.993,2.939-1.793,4.369-2.402s2.701-0.914,3.813-0.914c0.556,0,1.145,0,1.768,0
		c0.621,0,1.237,0.033,1.847,0.1c0.608,0.066,1.204,0.172,1.787,0.317c0.582,0.146,1.112,0.364,1.589,0.655
		c0.238,0.159,0.517,0.464,0.834,0.914c0.318,0.45,0.616,0.953,0.894,1.509c0.278,0.557,0.51,1.112,0.695,1.668
		c0.186,0.557,0.278,0.993,0.278,1.312c0,0.873-0.199,2.039-0.596,3.495c-0.424,1.827-0.814,3.489-1.172,4.984
		c-0.357,1.496-0.536,3.039-0.536,4.628c0,0.9,0.146,1.82,0.437,2.76c0.291,0.94,0.708,1.795,1.251,2.562
		c0.543,0.769,1.205,1.396,1.986,1.887s1.661,0.734,2.642,0.734c1.614,0,3.27-0.338,4.965-1.013c1.694-0.675,3.409-1.602,5.144-2.78
		c1.734-1.178,3.462-2.542,5.184-4.091c1.721-1.55,3.416-3.198,5.084-4.945c0.132-0.159,0.363-0.431,0.695-0.814
		c0.33-0.384,0.675-0.768,1.032-1.151s0.708-0.729,1.053-1.033c0.344-0.304,0.596-0.457,0.755-0.457
		C350.384,275.889,350.662,276.432,350.662,277.518z M315.312,274.221c0-0.45-0.026-1.006-0.079-1.668
		c-0.054-0.662-0.226-1.205-0.517-1.629c-0.292-0.423-0.649-0.628-1.072-0.615c-0.424,0.014-0.848,0.02-1.271,0.02
		c-0.927,0-1.82,0.146-2.681,0.438s-1.702,0.694-2.522,1.211s-1.608,1.112-2.363,1.787c-0.755,0.676-1.489,1.385-2.204,2.125
		c-0.609,0.609-1.251,1.364-1.927,2.265c-0.675,0.9-1.337,1.887-1.985,2.959c-0.649,1.072-1.278,2.198-1.887,3.376
		c-0.609,1.179-1.139,2.344-1.589,3.495c-0.451,1.152-0.809,2.265-1.072,3.337c-0.266,1.072-0.397,2.045-0.397,2.919
		c0,0.265,0.033,0.616,0.1,1.053c0.065,0.437,0.172,0.86,0.317,1.271c0.146,0.411,0.344,0.762,0.596,1.053
		c0.251,0.292,0.562,0.438,0.934,0.438c1.218,0,2.74-0.384,4.567-1.152c2.489-1.059,4.747-2.509,6.772-4.349
		c2.025-1.841,3.754-3.966,5.184-6.375C314.279,282.442,315.312,278.458,315.312,274.221z"/>
	<path fill="#FFFFFF" d="M406.944,275.69c0,0.715-0.543,2.039-1.629,3.972c-0.53,0.928-1.039,1.768-1.529,2.522
		s-0.947,1.41-1.37,1.966c-3.39,4.344-6.196,7.745-8.421,10.208c-2.198,2.437-4.66,4.515-7.388,6.236
		c-2.701,1.668-5.574,2.502-8.619,2.502c-2.145,0-4.468-0.787-6.971-2.363c-2.502-1.575-5.316-3.793-8.44-6.653
		c-1.112,0.874-2.104,1.781-2.979,2.722c-0.874,0.939-1.648,1.854-2.324,2.74c-0.675,0.888-1.244,1.748-1.707,2.582
		c-0.464,0.834-0.828,1.582-1.093,2.244c-0.265,0.661-0.543,1.383-0.834,2.164c-0.292,0.781-0.596,1.635-0.914,2.562
		c-0.582,1.827-1.165,3.138-1.747,3.932c-1.748-0.079-3.092-0.543-4.031-1.39c-0.94-0.848-1.41-2.119-1.41-3.813
		c0-0.715,0.105-1.443,0.317-2.185s0.51-1.482,0.894-2.225c0.384-0.74,0.82-1.476,1.311-2.204c0.49-0.728,1.014-1.423,1.569-2.085
		c0.715-0.848,1.78-2.052,3.197-3.614c1.416-1.562,3.158-3.283,5.224-5.164c-0.477-0.503-1.014-1.112-1.609-1.827
		s-1.185-1.463-1.768-2.244c-0.582-0.78-1.125-1.549-1.628-2.304c-0.504-0.755-0.914-1.41-1.231-1.966
		c-1.165-2.092-1.986-3.833-2.463-5.223c-0.477-1.391-0.715-2.655-0.715-3.794c0-0.582,0.1-1.138,0.298-1.668
		c0.199-0.529,0.503-0.999,0.914-1.41c0.41-0.41,0.92-0.741,1.529-0.993c0.608-0.251,1.323-0.377,2.145-0.377
		c0.715,0,1.271,0.226,1.668,0.675c0.397,0.451,0.688,0.968,0.874,1.55c0.079,0.317,0.152,0.694,0.219,1.132
		c0.065,0.437,0.125,0.888,0.179,1.351c0.053,0.463,0.112,0.92,0.179,1.37c0.065,0.45,0.139,0.834,0.218,1.151
		c0.503,2.172,1.192,3.986,2.065,5.442c0.9,1.456,2.185,2.979,3.854,4.567c2.224-2.092,4.21-4.157,5.958-6.196
		c0.899-1.006,1.707-2.125,2.423-3.356c0.715-1.231,1.363-2.575,1.946-4.031c0.317-0.688,0.596-1.251,0.834-1.688
		c0.238-0.437,0.482-0.787,0.734-1.053c0.251-0.264,0.522-0.442,0.814-0.536c0.291-0.092,0.636-0.139,1.032-0.139
		c0.45,0,0.927,0.106,1.431,0.317c0.502,0.213,0.959,0.497,1.37,0.854c0.41,0.357,0.755,0.781,1.032,1.271
		c0.278,0.49,0.417,1.026,0.417,1.609c0,0.768-0.49,1.88-1.47,3.336c-0.794,1.033-1.582,1.96-2.363,2.78
		c-0.781,0.821-1.622,1.774-2.521,2.86c-0.928,1.191-1.967,2.437-3.118,3.733c-1.152,1.298-2.442,2.701-3.873,4.21
		c0.715,0.715,1.609,1.477,2.682,2.284s2.21,1.562,3.416,2.264c1.204,0.702,2.409,1.285,3.614,1.748
		c1.204,0.463,2.31,0.694,3.316,0.694c2.092,0,4.177-0.728,6.256-2.184c2.078-1.456,4.389-3.549,6.931-6.276
		c1.139-1.218,2.317-2.555,3.535-4.012c1.218-1.456,2.488-3.031,3.813-4.727c2.621-3.389,4.104-5.084,4.448-5.084
		c0.45,0,0.814,0.113,1.093,0.338C406.805,275.022,406.944,275.32,406.944,275.69z"/>
</g>
<path opacity="0.8" fill-rule="evenodd" clip-rule="evenodd" fill="#FFFFFF" d="M107.343,231.534H38.788
	c-78.009-26.249-24.379-140.76,41.898-90.45c-13.246-56.73,47.552-89.662,89.783-54.526
	C187.64-42.262,365.469-23.607,351.234,117.99c59.287,1.18,80.65,88.937,16.232,113.544h-61.59l0.121-133.594
	c-8.949,0-28.594,0-37.539,0c0,48.024,0,85.57,0,133.594c-8.982,0-7.268,0-16.25,0c0-39.491,0-68.504,0-107.996
	c-8.918,0-28.533,0-37.451,0c0,39.492,0,68.505,0,107.996c-8.963,0-7.229,0-16.191,0c0-31.395,0-52.31,0-83.703
	c-8.922-0.002-28.537-0.004-37.457-0.007c0,31.396,0,52.314,0,83.71c-8.988,0-7.28,0-16.269,0c0-21.828,0-33.18,0-55.008
	c-8.935,0-28.564,0-37.498,0V231.534L107.343,231.534z"/>
</svg>
